<?xml version="1.0" standalone="no"?>
<!DOCTYPE svg PUBLIC "-//W3C//DTD SVG 20010904//EN"
 "http://www.w3.org/TR/2001/REC-SVG-20010904/DTD/svg10.dtd">
<svg version="1.0" xmlns="http://www.w3.org/2000/svg"
 width="928.000000pt" height="928.000000pt" viewBox="0 0 928.000000 928.000000"
 preserveAspectRatio="xMidYMid meet">
<metadata>
Created by potrace 1.14, written by Peter Selinger 2001-2017
</metadata>
<g transform="translate(0.000000,928.000000) scale(0.100000,-0.100000)"
fill="#000000" stroke="none">
<path d="M105 9100 l-80 -5 0 -4303 c0 -3997 2 -4304 17 -4313 10 -6 19 -6 23
0 3 7 15 7 29 1 13 -5 26 -7 29 -4 9 9 62 11 85 2 13 -4 22 -4 22 2 0 6 9 6
25 0 14 -5 25 -6 25 -1 0 5 17 5 38 1 20 -3 49 -3 65 1 15 4 27 3 27 -2 0 -6
7 -6 18 0 10 5 24 6 32 1 8 -5 21 -5 30 0 9 5 23 4 32 -1 10 -6 19 -6 23 0 3
7 15 7 29 1 13 -5 26 -7 29 -4 8 8 88 10 93 2 3 -4 16 -3 29 2 16 6 25 6 25 0
0 -6 9 -6 22 -1 13 5 33 5 46 0 12 -5 22 -5 22 -1 0 4 11 7 25 7 14 0 25 -4
25 -8 0 -4 8 -3 18 2 10 5 24 6 32 1 7 -4 23 -4 35 0 14 5 27 4 33 -2 6 -6 12
-6 16 1 4 7 15 7 30 1 13 -5 26 -7 29 -4 9 9 62 11 85 2 13 -4 22 -4 22 2 0 6
9 6 25 0 14 -5 25 -6 25 -1 0 5 17 5 38 1 20 -3 49 -3 65 1 15 4 27 3 27 -2 0
-6 7 -6 18 0 10 5 24 6 32 1 8 -5 21 -5 30 0 9 5 23 4 32 -1 10 -6 19 -6 23 0
3 7 15 7 29 1 13 -5 26 -7 29 -4 8 8 88 10 93 2 3 -4 16 -3 29 2 16 6 25 6 25
0 0 -6 9 -6 23 -1 12 5 32 5 44 0 13 -5 23 -5 23 -1 0 4 11 7 25 7 14 0 25 -4
25 -8 0 -4 8 -3 18 2 10 5 24 6 32 1 7 -4 23 -4 35 0 14 5 27 4 33 -2 6 -6 12
-6 16 1 4 7 15 7 30 1 13 -5 26 -7 29 -4 9 9 62 11 85 2 13 -4 22 -4 22 2 0 6
9 6 25 0 14 -5 25 -6 25 -1 0 5 17 5 38 1 20 -3 49 -3 65 1 15 4 27 3 27 -2 0
-6 7 -6 18 0 10 5 24 6 32 1 8 -5 21 -5 30 0 9 5 23 4 32 -1 10 -6 19 -6 23 0
3 7 15 7 29 1 13 -5 26 -6 29 -4 9 9 71 10 84 1 6 -4 14 -4 17 2 4 7 15 7 30
1 13 -5 26 -7 29 -4 9 9 62 11 85 2 13 -4 22 -4 22 2 0 6 9 6 25 0 14 -5 25
-6 25 -1 0 5 17 5 38 1 20 -3 49 -3 65 1 15 4 27 3 27 -2 0 -6 7 -6 18 0 10 5
24 6 32 1 8 -5 21 -5 30 0 9 5 23 4 32 -1 10 -6 19 -6 23 0 3 7 15 7 29 1 13
-5 26 -7 29 -4 8 8 88 10 93 2 3 -4 16 -3 29 2 16 6 25 6 25 0 0 -6 9 -6 23
-1 12 5 32 5 45 0 12 -5 22 -5 22 -1 0 4 11 7 25 7 14 0 25 -4 25 -8 0 -4 8
-3 18 2 10 5 24 6 32 1 7 -4 23 -4 35 0 14 5 27 4 33 -2 6 -6 12 -6 16 1 4 7
15 7 30 1 13 -5 26 -7 29 -4 9 9 62 11 85 2 13 -4 22 -4 22 2 0 6 9 6 25 0 14
-5 25 -6 25 -1 0 5 17 5 38 1 20 -3 49 -3 65 1 15 4 27 3 27 -2 0 -6 7 -6 18
0 10 5 24 6 32 1 8 -5 21 -5 30 0 9 5 23 4 32 -1 10 -6 19 -6 23 0 3 7 15 7
29 1 13 -5 26 -7 29 -4 8 8 88 10 93 2 3 -4 16 -3 29 2 16 6 25 6 25 0 0 -6 9
-6 23 -1 12 5 32 5 45 0 12 -5 22 -5 22 -1 0 4 11 7 25 7 14 0 25 -4 25 -8 0
-4 8 -3 18 2 10 5 24 6 32 1 7 -4 23 -4 35 0 14 5 27 4 33 -2 6 -6 12 -6 16 1
4 7 15 7 30 1 13 -5 26 -7 29 -4 9 9 62 11 85 2 13 -4 22 -4 22 2 0 6 9 6 25
0 14 -5 25 -6 25 -1 0 5 17 5 38 1 20 -3 49 -3 65 1 15 4 27 3 27 -2 0 -6 7
-6 18 0 10 5 24 6 32 1 8 -5 21 -5 30 0 9 5 23 4 32 -1 10 -6 19 -6 23 0 3 6
15 7 28 2 12 -5 31 -5 42 -1 11 4 25 3 32 -2 7 -5 14 -5 17 1 4 6 15 7 29 2
12 -5 32 -5 45 0 13 5 22 5 22 -2 0 -6 7 -6 20 1 14 8 26 8 40 0 13 -7 20 -7
20 -1 0 7 9 7 25 1 14 -5 25 -6 25 -1 0 4 11 6 25 3 14 -2 25 0 26 4 4 38 3
1548 -2 1561 -5 14 -47 15 -400 15 -217 -1 -396 -2 -399 -3 -3 -1 -9 0 -15 1
-12 3 -211 2 -222 -1 -5 -1 -12 -1 -17 0 -12 3 -528 3 -541 0 -5 -1 -14 0 -20
1 -12 3 -211 2 -222 -1 -5 -1 -12 0 -18 1 -32 7 -56 6 -61 -2 -3 -4 -10 -5
-16 -2 -9 6 -205 9 -225 3 -5 -1 -12 0 -18 1 -11 2 -536 1 -545 -1 -3 -1 -9 0
-15 1 -12 3 -211 2 -222 -1 -5 -1 -12 -1 -17 0 -12 3 -528 3 -541 0 -5 -1 -14
0 -20 1 -5 1 -49 2 -96 2 l-85 0 0 994 c0 894 1 994 15 995 9 1 763 3 1676 4
913 1 1665 3 1670 4 8 1 12 1021 6 1454 l-1 37 -1683 0 -1683 0 0 984 c0 885
1 985 15 985 72 3 132 1 141 -4 5 -3 10 -3 10 2 0 9 92 8 115 -1 8 -3 17 -1
19 3 3 5 23 5 44 1 21 -3 47 -3 58 0 10 4 29 4 40 -1 12 -4 25 -5 28 -2 3 3
40 5 83 4 43 -1 85 -2 93 -2 80 3 110 2 119 -3 5 -4 12 -2 15 3 3 4 23 5 44 1
21 -3 47 -3 58 0 10 4 29 4 40 -1 12 -4 24 -5 27 -2 6 5 139 7 162 3 6 -1 15
-1 20 0 22 4 105 1 114 -4 5 -4 12 -2 15 3 3 4 23 5 44 1 21 -3 47 -3 58 0 10
4 28 4 40 0 11 -5 27 -5 34 0 7 4 24 4 39 0 14 -4 35 -4 46 0 11 4 30 4 41 -1
12 -4 24 -5 27 -2 6 5 139 7 162 3 6 -1 15 -1 20 0 22 4 105 1 114 -4 5 -4 12
-2 15 3 3 4 23 5 44 1 21 -3 47 -3 58 0 10 4 29 4 40 -1 12 -4 24 -5 27 -2 5
4 166 7 192 3 6 -1 39 -1 75 0 36 1 72 1 80 1 8 -1 31 -1 50 0 88 1 106 1 115
-1 6 -1 39 -1 75 0 36 1 74 1 85 0 11 -1 27 -1 35 -1 8 0 33 0 55 0 22 0 47 0
55 0 82 3 110 2 119 -3 5 -4 12 -2 15 3 3 4 23 5 44 1 21 -3 47 -3 58 0 10 4
29 4 40 -1 12 -4 24 -5 27 -2 6 5 139 7 162 3 6 -1 15 -1 20 0 13 2 97 2 110
0 6 -1 12 -2 15 -1 18 7 130 4 130 -2 0 -5 4 -6 10 -2 5 3 25 6 45 7 19 1 36
4 36 7 1 3 2 358 3 789 l1 782 -100 0 c-858 4 -5161 4 -5220 0z"/>
<path d="M7888 2605 c-2 -1 -21 -5 -43 -8 -91 -13 -121 -20 -189 -42 -125 -41
-268 -117 -324 -172 -7 -7 -17 -13 -21 -13 -13 0 -159 -152 -206 -215 -36 -48
-116 -183 -121 -205 -1 -7 -14 -41 -24 -65 -9 -20 -22 -60 -26 -80 -1 -5 -7
-32 -14 -60 -28 -121 -30 -369 -3 -475 3 -14 8 -34 10 -45 7 -36 54 -170 69
-192 8 -12 14 -29 14 -38 0 -8 5 -15 10 -15 6 0 10 -5 10 -10 0 -14 82 -136
121 -180 120 -136 225 -218 365 -286 43 -21 81 -39 84 -39 3 -1 39 -12 80 -25
41 -12 82 -23 90 -23 8 0 20 -3 25 -6 6 -3 29 -6 53 -6 23 0 42 -2 42 -5 0 -5
217 -5 223 0 1 1 13 3 27 5 179 18 374 93 524 200 211 151 372 392 432 650 8
35 25 183 24 213 0 15 0 38 0 55 1 38 -13 168 -25 226 -12 64 -84 254 -97 259
-4 2 -8 8 -8 13 0 11 -76 134 -105 168 -31 38 -174 181 -180 181 -4 0 -23 13
-43 30 -86 69 -280 156 -392 176 -14 3 -32 7 -40 10 -27 11 -332 28 -342 19z"/>
</g>
</svg>
